<svg height="512" viewBox="0 0 64 64" width="512" xmlns="http://www.w3.org/2000/svg"><g id="Fill_Outline" data-name="Fill Outline"><g id="Color"><g><g><path d="m11 45h8a0 0 0 0 1 0 0v12a4 4 0 0 1 -4 4 4 4 0 0 1 -4-4v-12a0 0 0 0 1 0 0z" fill="#aae1f9"/><path d="m18 59a4 4 0 0 1 -4-4v-10h-3v12a3.988 3.988 0 0 0 7.471 1.953 4.061 4.061 0 0 1 -.471.047z" fill="#57b7eb"/><path d="m14.925 50.038a6.269 6.269 0 0 1 -3.925.553v6.409a4 4 0 0 0 8 0v-7.477a6.258 6.258 0 0 0 -4.075.515z" fill="#c4f236"/><g><path d="m9 37h2a4 4 0 0 1 4 4 0 0 0 0 1 0 0h-2a4 4 0 0 1 -4-4 0 0 0 0 1 0 0z" fill="#c4f236"/><path d="m19 37h2a0 0 0 0 1 0 0 4 4 0 0 1 -4 4h-2a0 0 0 0 1 0 0 4 4 0 0 1 4-4z" fill="#c4f236" transform="matrix(-1 0 0 -1 36 78)"/><g fill="#a1d51c"><path d="m13 39a3.982 3.982 0 0 1 -3.445-2h-.555a4 4 0 0 0 4 4h2a3.955 3.955 0 0 0 -.555-2z"/><path d="m17 39h-1.445a3.955 3.955 0 0 0 -.555 2h2a4 4 0 0 0 4-4h-.555a3.982 3.982 0 0 1 -3.445 2z"/></g></g><path d="m18 59a4 4 0 0 1 -4-4v-4.591a6.306 6.306 0 0 1 -3 .182v6.409a3.988 3.988 0 0 0 7.471 1.953 4.061 4.061 0 0 1 -.471.047z" fill="#a1d51c"/></g><path d="m47 57h14a0 0 0 0 1 0 0v2a2 2 0 0 1 -2 2h-10a2 2 0 0 1 -2-2v-2a0 0 0 0 1 0 0z" fill="#d0d8da"/><g><rect fill="#d0d8da" height="4" rx="2" transform="matrix(-.5 .866 -.866 -.5 65.403 8.243)" width="14" x="23.322" y="21.002"/><path d="m15.329 22.627.235-.063a10.243 10.243 0 0 1 7.772 1.023l3.254 1.879 4-6.928-3.254-1.879a10.245 10.245 0 0 1 -4.772-6.219l-.063-.235a9.658 9.658 0 0 0 -4.501-5.864 10 10 0 0 0 -13.659 3.659 10 10 0 0 0 3.659 13.662 9.653 9.653 0 0 0 7.329.965z" fill="#d0d8da"/><path d="m27.336 19.587a10.243 10.243 0 0 0 -7.772-1.023l-.235.063a9.658 9.658 0 0 1 -7.329-.965 9.994 9.994 0 0 1 -3.774-13.435 9.985 9.985 0 0 0 -.226 17.435 9.658 9.658 0 0 0 7.327.965l.235-.063a10.243 10.243 0 0 1 7.772 1.023l3.254 1.879 2.732-4.732z" fill="#93999a"/><path d="m37 33a2 2 0 0 1 -4 0c0-1.105.9-4 2-4s2 2.9 2 4z" fill="#c4f236"/><path d="m27.087 21.663-.344-.144a2.413 2.413 0 0 1 -1.07-.885l-.883-1.324a2.409 2.409 0 0 0 -2-1.072h-2.351a2.41 2.41 0 0 1 -2.066-1.17l-1.454-2.424a2.408 2.408 0 0 0 -2.462-1.137l-2.846.474a2.409 2.409 0 0 1 -2.4-1.039 2.408 2.408 0 0 0 -3-.857 21.474 21.474 0 0 0 -3.165 1.78 9.983 9.983 0 0 0 4.954 7.797 9.658 9.658 0 0 0 7.327.965l.235-.063a10.243 10.243 0 0 1 7.772 1.023l3.254 1.879 1.618-2.8a2.392 2.392 0 0 0 -1.119-1.003z" fill="#c4f236"/><path d="m36 33a2 2 0 0 1 -2-2 6.2 6.2 0 0 1 .3-1.614 6.9 6.9 0 0 0 -1.3 3.614 2 2 0 0 0 4 0c0-.08-.006-.172-.015-.269a1.985 1.985 0 0 1 -.985.269z" fill="#a1d51c"/><path d="m27.087 21.663-.344-.144a2.408 2.408 0 0 1 -1.07-.885l-.883-1.324a2.406 2.406 0 0 0 -1.959-1.067h-.068-1.221a10.158 10.158 0 0 0 -1.978.326l-.235.063a9.658 9.658 0 0 1 -7.329-.97 9.956 9.956 0 0 1 -4.566-5.78 2.4 2.4 0 0 0 -1.226.2 21.474 21.474 0 0 0 -3.165 1.78 9.983 9.983 0 0 0 4.957 7.8 9.653 9.653 0 0 0 7.327.965l.235-.063a10.243 10.243 0 0 1 7.772 1.023l3.254 1.879 1.618-2.8a2.392 2.392 0 0 0 -1.119-1.003z" fill="#a1d51c"/><path d="m29.554 25.332a1.975 1.975 0 0 1 -3.129.421l-.335.579a2 2 0 0 0 3.464 2l5-8.66a2 2 0 0 0 -.334-2.421z" fill="#93999a"/></g><g><path d="m31 39h1a3 3 0 0 1 3 3v5a0 0 0 0 1 0 0 4 4 0 0 1 -4-4v-4a0 0 0 0 1 0 0z" fill="#a1d51c"/><path d="m32 39h-1v4a4 4 0 0 0 4 4v-4.141a3.992 3.992 0 0 1 -3-3.859z" fill="#7ab92d"/><rect fill="#f9e109" height="12" rx="4" width="10" x="29" y="46"/><path d="m37 55h-2a4 4 0 0 1 -4-4v-4a4.061 4.061 0 0 1 .047-.471 3.983 3.983 0 0 0 -2.047 3.471v4a4 4 0 0 0 4 4h2a3.987 3.987 0 0 0 3.953-3.529 3.959 3.959 0 0 1 -1.953.529z" fill="#fcbc04"/><path d="m39 52.268-8.828-5.1a3.988 3.988 0 0 0 -1.172 2.832v.494l9.467 5.466a3.952 3.952 0 0 0 .533-1.96z" fill="#f89c8d"/><g fill="#f8664f"><path d="m31 51v-3.351l-.828-.478a3.988 3.988 0 0 0 -1.172 2.829v.494l2.069 1.2a4.013 4.013 0 0 1 -.069-.694z"/><path d="m37 55h-.2l1.663.96a4.048 4.048 0 0 0 .5-1.5 3.964 3.964 0 0 1 -1.963.54z"/></g><path d="m26 55h4a4 4 0 0 1 4 4v2a0 0 0 0 1 0 0h-2a6 6 0 0 1 -6-6 0 0 0 0 1 0 0z" fill="#c4f236"/><path d="m40 55h2a0 0 0 0 1 0 0v2a4 4 0 0 1 -4 4h-4a0 0 0 0 1 0 0 6 6 0 0 1 6-6z" fill="#c4f236" transform="matrix(-1 0 0 -1 76 116)"/><path d="m28 42h2a4 4 0 0 1 4 4 0 0 0 0 1 0 0h-2a4 4 0 0 1 -4-4 0 0 0 0 1 0 0z" fill="#c4f236"/><path d="m38 42h2a0 0 0 0 1 0 0 4 4 0 0 1 -4 4h-2a0 0 0 0 1 0 0 4 4 0 0 1 4-4z" fill="#c4f236" transform="matrix(-1 0 0 -1 74 88)"/><g fill="#a1d51c"><path d="m26.349 55h-.349a6 6 0 0 0 6 6h2v-2h-2a6 6 0 0 1 -5.651-4z"/><path d="m36 59h-2v2h2a6 6 0 0 0 6-6h-.349a6 6 0 0 1 -5.651 4z"/><path d="m32 44a3.982 3.982 0 0 1 -3.445-2h-.555a4 4 0 0 0 4 4h2a3.955 3.955 0 0 0 -.555-2z"/><path d="m36 44h-1.445a3.955 3.955 0 0 0 -.555 2h2a4 4 0 0 0 4-4h-.555a3.982 3.982 0 0 1 -3.445 2z"/></g></g><g><path d="m48 48h2a4 4 0 0 1 4 4 0 0 0 0 1 0 0h-2a4 4 0 0 1 -4-4 0 0 0 0 1 0 0z" fill="#c4f236"/><path d="m58 48h2a0 0 0 0 1 0 0 4 4 0 0 1 -4 4h-2a0 0 0 0 1 0 0 4 4 0 0 1 4-4z" fill="#c4f236" transform="matrix(-1 0 0 -1 114 100)"/><g fill="#a1d51c"><path d="m52 50a3.982 3.982 0 0 1 -3.445-2h-.555a4 4 0 0 0 4 4h2a3.955 3.955 0 0 0 -.555-2z"/><path d="m56 50h-1.445a3.955 3.955 0 0 0 -.555 2h2a4 4 0 0 0 4-4h-.555a3.982 3.982 0 0 1 -3.445 2z"/></g></g><path d="m49 57h-2v2a2 2 0 0 0 2 2h10a2 2 0 0 0 2-2h-10a2 2 0 0 1 -2-2z" fill="#93999a"/></g></g><g id="Outlines_copy" data-name="Outlines copy"><g fill="#323232"><path d="m61 56h-6.149v-2.871h1a5.006 5.006 0 0 0 5-5 1 1 0 0 0 -1-1h-2a4.982 4.982 0 0 0 -4 2.031 4.982 4.982 0 0 0 -4-2.031h-2a1 1 0 0 0 -1 1 5.006 5.006 0 0 0 5 5h1v2.871h-5.851a1 1 0 0 0 -1 1v2a2.966 2.966 0 0 0 .184 1h-5.295a6.973 6.973 0 0 0 2.111-5 1 1 0 0 0 -1-1h-2v-4a4.972 4.972 0 0 0 -1.6-3.642 4.983 4.983 0 0 0 2.6-4.358 1 1 0 0 0 -1-1h-2a4.942 4.942 0 0 0 -2.055.454 3.993 3.993 0 0 0 -3.945-3.454h-1a1 1 0 0 0 -1 1v2h-2a1 1 0 0 0 -1 1 4.983 4.983 0 0 0 2.6 4.358 4.972 4.972 0 0 0 -1.6 3.642v4h-2a1 1 0 0 0 -1 1 6.973 6.973 0 0 0 2.111 5h-8.137a4.948 4.948 0 0 0 1.026-3v-12a1 1 0 0 0 -2 0v3.4a7.341 7.341 0 0 0 -2 .216v-6.616h1a5.006 5.006 0 0 0 5-5 1 1 0 0 0 -1-1h-2a4.982 4.982 0 0 0 -4 2.031 4.982 4.982 0 0 0 -4-2.031h-2a1 1 0 0 0 -1 1 5.006 5.006 0 0 0 5 5h1v7.334a5.306 5.306 0 0 1 -2 .355v-4.689a1 1 0 0 0 -2 0v12a4.948 4.948 0 0 0 1.026 3h-8.026a1 1 0 0 0 0 2h56a1 1 0 0 0 0-2h-10a1 1 0 0 1 -1-1v-1h13a1 1 0 0 0 0-2zm-3.149-6.871h.829a3.006 3.006 0 0 1 -2.829 2h-.829a3.006 3.006 0 0 1 2.829-2zm-6 2a3.006 3.006 0 0 1 -2.829-2h.829a3.006 3.006 0 0 1 2.829 2zm-32.851-13.129h.829a3.006 3.006 0 0 1 -2.829 2h-.829a3.006 3.006 0 0 1 2.829-2zm-6 2a3.006 3.006 0 0 1 -2.829-2h.829a3.006 3.006 0 0 1 2.829 2zm-1 17v-5.31a7.256 7.256 0 0 0 2-.254v4.564a1 1 0 0 0 2 0v-5.329a5.474 5.474 0 0 1 2-.273v6.602a3 3 0 0 1 -6 0zm21-10h2a3 3 0 0 1 3 3v.535l-5.873-3.39a2.936 2.936 0 0 1 .873-.145zm5.829-4a3.006 3.006 0 0 1 -2.829 2h-.829a3.006 3.006 0 0 1 2.829-2zm-6.829-2v-1a2 2 0 0 1 2 2v1.031a5 5 0 0 0 -1.956-1.583 2.443 2.443 0 0 1 -.044-.448zm-2 2a3.006 3.006 0 0 1 2.829 2h-.829a3.006 3.006 0 0 1 -2.829-2zm0 9.226 2.84 1.64a1 1 0 1 0 1-1.732l-3.832-2.213a2.962 2.962 0 0 1 .423-1.446l7.569 4.37v1.155a4.982 4.982 0 0 0 -4 2.031 4.982 4.982 0 0 0 -4-2.031zm-2.9 3.774h2.9a3 3 0 0 1 3 3v1h-1a5.008 5.008 0 0 1 -4.9-4zm7.9 4v-1a3 3 0 0 1 3-3h2.9a5.008 5.008 0 0 1 -4.9 4z"/><path d="m7.5 22.528a10.6 10.6 0 0 0 8.09 1.064l.232-.063a9.191 9.191 0 0 1 7.013.924l2.388 1.379a3 3 0 0 0 5.2 3l5-8.66a3 3 0 1 0 -5.2-3l-2.223 3.854a3.162 3.162 0 0 0 -.524-.285l-.343-.144a1.4 1.4 0 0 1 -.627-.518l-.883-1.324a3.4 3.4 0 0 0 -2.836-1.518h-2.348a1.415 1.415 0 0 1 -1.208-.683l-1.455-2.425a3.394 3.394 0 0 0 -3.483-1.608l-2.847.479a1.411 1.411 0 0 1 -1.4-.608 3.394 3.394 0 0 0 -4.246-1.217q-.884.4-1.738.887a8.993 8.993 0 0 1 13.438-6.854 8.594 8.594 0 0 1 4.034 5.257l.063.233a11.165 11.165 0 0 0 5.238 6.827 1 1 0 1 0 1-1.732 9.181 9.181 0 0 1 -4.305-5.613l-.063-.234a10.58 10.58 0 0 0 -4.967-6.47 11 11 0 0 0 -11 19.052zm24.456-4.356a1 1 0 0 1 .867-.5.988.988 0 0 1 .5.134 1 1 0 0 1 .366 1.366l-5 8.66a.992.992 0 0 1 -.607.466 1.012 1.012 0 0 1 -.759-.1 1 1 0 0 1 -.366-1.365zm-25.332-5.172a1.4 1.4 0 0 1 1.755.5 3.414 3.414 0 0 0 3.4 1.472l2.846-.475a1.409 1.409 0 0 1 1.44.665l1.454 2.425a3.423 3.423 0 0 0 2.923 1.654h2.347a1.408 1.408 0 0 1 1.172.627l.883 1.324a3.39 3.39 0 0 0 1.514 1.252l.345.145a1.148 1.148 0 0 1 .287.194l-.766 1.317-2.388-1.379a11.17 11.17 0 0 0 -8.536-1.121l-.232.062a8.6 8.6 0 0 1 -6.568-.862 8.983 8.983 0 0 1 -4.385-6.419 20.455 20.455 0 0 1 2.509-1.381z"/><path d="m32 33a3 3 0 0 0 6 0c0-1.164-.935-5-3-5s-3 3.836-3 5zm3 1a1 1 0 0 1 -1-1 6.192 6.192 0 0 1 1-2.915 6.192 6.192 0 0 1 1 2.915 1 1 0 0 1 -1 1z"/><circle cx="14.075" cy="17.238" r="1"/><circle cx="7.075" cy="16.238" r="1"/><circle cx="10.075" cy="18.238" r="1"/><path d="m42 23a1 1 0 0 0 .833-.445l4-6a1 1 0 1 0 -1.664-1.11l-4 6a1 1 0 0 0 .831 1.555z"/><path d="m43.081 26.394a1 1 0 0 0 .919.606.979.979 0 0 0 .394-.081l7-3a1 1 0 1 0 -.788-1.838l-7 3a1 1 0 0 0 -.525 1.313z"/><path d="m45 30a1 1 0 0 0 0 2h7a1 1 0 0 0 0-2z"/></g></g></g></svg>